<svg id="acdc4168-8157-4136-81ff-51660ffd15b9" data-name="Layer 1" xmlns="http://www.w3.org/2000/svg" viewBox="0 0 1117.09 1117.09"><circle cx="558.55" cy="558.55" r="789.9" style="fill:#fefefe"/><path d="M488.56,179c6.94,1,13.76,2.54,20.77,3.37a44.42,44.42,0,0,1,24.53,10.7,49.06,49.06,0,0,0,7.84,5.78c16,9.34,28.79,22.34,40.91,36.17,11.13,12.7,18.83,27.42,26.31,42.33,1.22,2.42,3.18,4.43,3.87,7.13-11.55-1.23-20.77,4.3-30.26,9.77-8.17,4.71-16.62,8.94-24.56,14.07a31.79,31.79,0,0,0-6.74,5.44c-3.26,3.62-4.13,3.54-7-.4-7.66-10.57-14.4-21.77-22-32.39-.25-.36-.38-.62-.54-.6,7.82,10.81,14.81,22.26,22.52,33.21,2.71,3.85,5.63,7.13,10.82,7.07a6.6,6.6,0,0,1,3.59,3.12c4.49,7.38,9.43,14.46,14.14,21.69A6.59,6.59,0,0,1,574.2,350c0,9.88-5,15.8-14,19.4-6,2.38-11.87,5.34-17.91,7.78q-49.54,7-99.1,13.85a149,149,0,0,0-21.2,4.85c-8.49,2.51-14.25,9-19.89,15.44-1.88,2.16-2.81,5.13-5.59,6.53-7.46-3.19-11-9.92-11.6-17a294.57,294.57,0,0,1-.06-42.12c1.55-7.19.25-14.46.64-21.69.19-3.59-.29-7.22.41-9.65-.7,9.93-2,21-1.61,32.09.74,11.6-1.24,23.1-1.21,34.69,0,6.19-3.59,11.28-6.28,16.58-1.24,2.16-1.68,4.79-3.8,6.43a3.08,3.08,0,0,1-3.34.52c-5-6.4-9.93-12.8-16.72-17.62a33,33,0,0,0-15.3-6.32c-25.88-3.33-51.95-4.78-77.83-8.2-7.85-1-15.91-1-23.85-1.22-9.79-.26-19.5-1.79-29.31-1.37a17.17,17.17,0,0,1-7.4-1.55c-1.65-.74-2.66-2.31-4.32-3.13-10-4.92-13.29-13.44-12.56-24a7.51,7.51,0,0,0-.55-3.11c3.54-11.45,8.49-22,19-28.87,4.78,2,6.6-1.58,8.41-4.64,3-5,4.94-10.5,7.38-15.76,3.62-7.83,7.23-15.66,10.62-23.59-5.55,12.39-11.1,24.79-16.91,37.07-2,4.16-4.14,4.57-6.79,1.22-7.24-9.14-17-14.52-27.51-18.66a116.9,116.9,0,0,0-29-7c-12.5-2.44-12,7-15,9,.47-4.1-2.55-6.44,0-9,8.38-8.39,18.72-26.59,26.09-35.75,11.8-14.68,23.14-29.77,36.85-42.76,11.56-11,25.51-18.4,39.31-26.07,9.51-5.3,19.73-8,30.34-9.65a28.65,28.65,0,0,1,10.28.32c1.65,1.57,1.24,3.68,1.45,5.62s.4,3.79,1.86,5c5.43,4.45,5.65,9.94,3.54,16-1.19,3.44.94,6.05,2.63,8.47a22,22,0,0,1,4.13,11.5c.61,8.47,6.18,14.49,15.21,16,5.63.95,9.07,2.51,11.12,8.7,1.78,5.43,7.29,8.76,13.53,9.57,5,.65,10.1.79,15,2,5.33,5.36,9.59,11.68,16.39,15.71,11.43,6.8,22.91,7.17,34.83,1.92A69.71,69.71,0,0,0,413,265.2a11.79,11.79,0,0,1,5.11-1.71A28.6,28.6,0,0,0,437,253.86a7.92,7.92,0,0,1,7.4-2.43c3.77.47,7.55.86,11.34.12.89-.18,1.8-.19,2.69-.4,10.09-2.41,23.67-20.41,23-30.69-.22-3.14-.35-6.08,1.35-8.91a7.79,7.79,0,0,0,.77-5.29,12.8,12.8,0,0,1,1.12-7.91c1.65-3.41,1.45-7.06.88-10.66S485.63,181.23,488.56,179Z" transform="translate(184 99)" style="fill:#867de1"/><path d="M488.56,179c-1.55,3.69-2.4,7.4-1,11.39a5.47,5.47,0,0,1,0,3.23c-1.64,5.3-3.33,10.58-2.47,16.25-3.34,4.24-2.05,9.09-2,13.86a16.34,16.34,0,0,1-5.62,12.53,41.92,41.92,0,0,0-7.31,8.66c-4.78,7.46-12.45,8.67-20.5,8.67a11.1,11.1,0,0,1-2.68-.43c-4.56-1.16-8-.24-11.2,3.77a19,19,0,0,1-13.51,7.27c-3,.25-6,1.22-9,1.86-10.56,4-23.4-3.71-26-15.41-.5-2.22.78-5.46-2.66-6.41-2.66-.74-9.41,2.33-11,4.78a15.26,15.26,0,0,0-1.46,3.49c-3.26,9.66-11.14,13.45-20.24,9.26-2.93-1.35-5.73.19-8.44-.89-5.85.66-11.7-.63-17.18-1.82-6.67-1.46-12.77-5.56-14-13.37-.53-3.36-2-4.11-5-4.07-12.37.2-21.93-10.22-20.39-21.66.18-1.3.23-2.46-1.07-3.36-1.86-1.28-2.44-3.52-3.66-5.25-2.57-3.65-3.82-6.95-.37-10.68.7-.75.2-1.69-.16-2.54-.71-1.65-1.71-3.26-.91-5.18.44-1,0-1.69-.95-2.15-5-2.4-5.48-6.76-4.94-11.55.08-.72.09-1.45.14-2.17a5.21,5.21,0,0,0,.95-6.37c-2.31-5.08-1.24-10,1.89-14.38a14.31,14.31,0,0,0,2.55-7c.62-5.49,2.27-10.63,7.2-14.05a11.83,11.83,0,0,0,2-2.47,9.44,9.44,0,0,1,7-3.69c3.9-.24,3.94-.36,4.27-4.42a29.81,29.81,0,0,1,3.37-11.94c4.86-9,12.67-12.7,22.72-10.7a13.3,13.3,0,0,1,4.18,1.12c4.59,2.73,7.53,2.07,10.74-2.72s8.75-6.9,14.5-7.74c1.61-.24,3.23-.11,4.6-1.29,4.91-4.25,10.61-4.4,16.39-2.6a5.36,5.36,0,0,0,5.88-1.15c4.75-4.17,10.23-5.18,16.26-3.33,2.76.85,5.56,1.6,8.29,2.56a23.11,23.11,0,0,1,4.38,2.15c3.84,2.33,5.41,7.28,11.19,7.75,4.3.36,8,4,11.23,7.25.92.91,1.91.57,3,.14,2-.78,4.1-1.43,6.17-2.06,11.55-3.51,27.34,5,29,16.41.3,2.1,1.28,3,3.53,3.07,9.32.46,12.79,6.35,13.74,13.41a37.87,37.87,0,0,1,.46,7c-.32,6.14-.5,12.17,2.18,18,1.3,2.83-.36,5.15-3.94,6.53-3.35,1.31-3.46,1.37-1.61,4.49C488.44,173.61,488.5,176.28,488.56,179Z" transform="translate(184 99)" style="fill:#3b1503"/><path d="M198.55,380.33c10.57,1.76,21.3,1.16,31.92,2.12,13.86,1.25,27.8,1.13,41.64,3.08,12.7,1.78,25.55,2.43,38.32,3.71,10.61,1.07,21.2,2.28,31.79,3.51,3.72.43,6.81,2.44,9.73,4.59C359.56,403,366.71,409,370.62,418c3.37,5,3.39,10.91,4.15,16.51,1.14,8.51,4.29,16.76,3.59,25.52,0,2.78-1,4.1-4.09,4.47a28.44,28.44,0,0,0-8.37,2.9c-4.17,2-6.18,1.64-8.29-2.22a26.93,26.93,0,0,1-2-5.59c-1.07-3.82-1.88-7.71-3.05-11.5-1.65-5.37-2.34-5.73-7.71-4.79-1.95.34-3.87.82-5.81,1.23-.5-.2-1.15-.51-1.55-.19-10.85,8.69-24.37,8-37,10.27-7.52,1.37-15.15,2.65-22.9,2.15,2.74.43,5.74-1.07,8.22,1.2a10.09,10.09,0,0,1-2.56.8c-16.67.64-33.26,3-50,2.26a412.18,412.18,0,0,1-51.85-5.87c-12.68-2.21-25.35-4.58-37.91-7.41a105.81,105.81,0,0,1-30.48-11.49,64.61,64.61,0,0,1-22.11-20.64c-3-4.73-5.2-9.86-3.75-15.92.71-2.94.34-6.14.57-9.21.52-7.21,3.53-13.67,6.38-20.13,7.65-17.27,16.22-34.09,25.36-50.61,4.12-7.45,9-14.48,13.53-21.69.82-4,3.85-5.16,7.28-5.07,21.54.53,41.44,5.77,57.56,21.06,2.37,2.24,5.55,4.62,2.76,8.67-8.48,7.9-13.8,17.83-18.21,28.34.62,3.06-1.8,4.95-2.89,7.34-1.34,3-3.14,5.71-4.07,8.84-1.14,3.84-.06,6.67,3.83,8.32A43.08,43.08,0,0,0,192.88,379C194.85,379.13,196.89,378.92,198.55,380.33Z" transform="translate(184 99)" style="fill:#d48763"/><path d="M396.86,417.37c.3-3.35,2.79-5.56,4.74-7.75,6.87-7.68,14.07-14.32,25.09-16.72,17-3.7,34.15-5.77,51.29-8.2,13.94-2,27.83-4.24,41.78-6.05,7.7-1,15.32-2.67,23.12-2.76,9.63-3.19,19.8-3.66,29.63-5.83,6.84-1.51,7.61-3.22,5.6-9.84-1.11-3.67-4-6.49-4.58-10.33-1.57-4.07-4.34-7.43-6.8-10.93-4-5.72-7.11-12-11.53-17.5-3.75-2.86-2.73-5.9.45-7.92,13.74-8.71,26.9-18.41,41.88-25.05a25.44,25.44,0,0,1,5.2-1.53c6.46-1.34,8.66-.34,12,5.36.9,3.23,3,5.8,4.91,8.41a342.26,342.26,0,0,1,30.52,50.17c3.74,7.45,6.63,15.28,10.69,22.62,3.78,6.85,3.61,14.79,3.34,22.37-.19,5-3.59,9-6.42,13-9.08,12.94-22.2,19.82-36.58,25.2-20.52,7.69-41.81,12.23-63.3,15.59-15.93,2.49-32.14,3-48.32,2.77-15.95-.2-31.92-.68-47.66,2.93a53.47,53.47,0,0,1-9.75.81c-7.26.29-14.38,1.68-21.56,2.65a14.36,14.36,0,0,1-7.47-.95,5.31,5.31,0,0,1-3.51-5.53c0-2.92,1.74-4,4.26-4.79,2.24-.69,5.16.11,6.92-2.95-3.63-2.51-7.62-2.6-11.49-2.62-2.2,0-3.39,1.67-3.76,4-.61,3.76-1.49,7.47-2.13,11.22A28.6,28.6,0,0,1,411,464.4c-1.66,3.59-4.09,4.31-7.35,1.91-3.09-2.27-6.73-2.79-10.16-4-3.13-4.06-3-8.8-2.27-13.4,1.52-9.37,1.82-18.91,4.15-28.16A5.16,5.16,0,0,1,396.86,417.37Z" transform="translate(184 99)" style="fill:#d48763"/><path d="M411.1,540.48c-6.6.23-13.21.42-19.81,0-11.39-1-22.79,0-34.77-.53,5.54.64,10.57-.66,15.47.82-7.32,1.58-14.72,1-22.1.78-3.22-.83-6.49-.28-9.74-.35-2.2-.05-4.11-.26-4.14-3s1.09-4.67,4.05-4.69c2.17,0,4.35.08,6.53.08h38.56c-5.68-.62-12.38.93-19-.76a5.17,5.17,0,0,1,3.67-.61c2.68.34,2.67-1.54,2.94-3.26,1.75-1.91,3.54-1.85,5.37-.11a4.66,4.66,0,0,1-.76,3.21h6.14c8.66,0,17.32-.08,26,0,2.26,0,2.9-.87,2.3-2.95-.75-2.57-2.2-5-2-7.77l.46-.42a47.37,47.37,0,0,1,3.8,11.21,9.43,9.43,0,0,0-.77,2.57c-.7,5.09-2.18,5.68-6.83,2.82C406.85,540.28,410.78,537.58,411.1,540.48Z" transform="translate(184 99)" style="fill:#8a8c89"/><path d="M200,322c.84-2.94-.24-4.09-2.14-5.88-10.78-10.21-23.25-17.17-38-19.6-4.64-.77-9.28-1.49-13.94-2.1-4.83-.58-13,3.64-12.89,3.58l1-3c5-7,7.55-6.58,13.59-5.77,12.89,1.29,25,5.41,36.7,10.77,6.4,2.93,11.72,7.74,17.57,11.63,1.57,1.05,1.43,3.59,3.07,5,2.22,1.88,2.74,2,4-.56,3.53-7.33,6.89-14.73,10.29-22.13,2.8-6.07,5.54-12.17,8.34-18.24.34-.73.6-1.78,1.83-1.41.54.45.39,1,.16,1.48q-10.2,22.17-20.44,44.32C208.51,321.36,197,328,196,329,192,330,198.37,325.29,200,322Z" transform="translate(184 99)" style="fill:#5c4ed0"/><path d="M614.72,292.32c-.48-.24-1.21-.36-1.4-.75-2.17-4.33-6-4.34-9.81-3.45a31.27,31.27,0,0,0-8.18,2.83c-9,5-18.23,9.63-26.54,15.84-3.61,2.69-7.71,4.73-11.51,7.18s-3.86,3.13-2.09,7.49c-4.39.92-7.41-.55-9.91-4.49-6-9.46-12.39-18.67-18.66-28-2.12-3.15-4.34-6.22-6.51-9.33-.61-.87-1.47-1.67-.39-3.65,9.94,13,17.69,27.18,27.94,40.19,5.46-8.38,14.06-11.81,21.69-16.38C577.54,295,586.3,291,594.48,286c5.86-3.54,12-3.31,18.31-1.55C615.21,286.66,615.28,289.41,614.72,292.32Z" transform="translate(184 99)" style="fill:#5f50cd"/><path d="M336,445.94c.05,1.35.89,1.86,2.09,2,2.15.32,4.31.59,6.44,1,4.4.84,5.88,4.29,3.47,8.06-1.54,2.4-3.52,4.14-6.6,4.12-3.79,0-7.58.27-11.35-.66-4.27-1.05-8.66-.29-13-.54-4.66-.27-9.41.78-14-.91.27-.53.8-.55,1.29-.64.2,0,0-.15-.48-.09-2,.26-4.11-.43-6.08.44l-7.64-.07c1.87-1.32,2.87-3.73,5.53-4.05,8.78-1.05,17.46-2.9,26.25-3.8C327.07,450.31,330.86,446.37,336,445.94Z" transform="translate(184 99)" style="fill:#d38763"/><path d="M378.16,528.84l-5.37.11c-7.06,0-14.12.08-21.18,0-1.84,0-4.59.72-4.69-2.18s2.6-2.45,4.5-2.48q24.72-.33,49.43-.56c1.93,0,4.61-.39,4.67,2.36s-2.6,2.47-4.54,2.5C393.37,528.7,385.77,528.76,378.16,528.84Z" transform="translate(184 99)" style="fill:#61da20"/><path d="M372.82,416.4c-1.28,2.85-.65,5.61.4,8.35,2.95,7.76,4.59,16,8,23.58a17.86,17.86,0,0,1,1.69,7.34c-.89,2.1-2.88,3.06-4.53,4.36-2-3.71-1.83-7.91-2.59-11.88-1.93-10-3.46-20.1-5.15-30.15Z" transform="translate(184 99)" style="fill:#ab6845"/><path d="M386.82,455.47c2.3-9,4.44-18.07,7-27,.73-2.55.21-5.43,2-7.68.3-.5.64-.53,1-.08-2.35,9-2.25,18.44-4.08,27.58-.92,4.62-.25,9.38.75,14C391.46,459.86,387.82,459,386.82,455.47Z" transform="translate(184 99)" style="fill:#b26e4b"/><path d="M407.49,514.62c-3.17-6.85-4.8-14.23-7.36-21.3-1.66-4.61-1.56-4.67-6.13-4.7q-12.44-.09-24.87-.08c-1.77,0-3.62-.39-5.25.74-1.05,1.52-1.16,3.78-3.43,4.33-1.51-1.28-1.81.27-2.2,1.06-2,4.05-3.91,8.15-5.9,12.21-.87,1.76-1.45,3.69-2.86,5.21-1.3-1-.37-1.88,0-2.74,2.94-6.22,6-12.38,8.82-18.64,1.11-2.47,2.54-3.5,5.36-3.48,10.69.08,21.39,0,32.08-.28,3.19-.09,4.43,1.1,5.27,3.94,1.93,6.59,4.14,13.1,6.31,19.62a9,9,0,0,1,.56,3.72Z" transform="translate(184 99)" style="fill:#9a8c86"/><path d="M336,445.94a47.08,47.08,0,0,1-18.2,6.36l-24.36,3.57c.32,1.37,1.85.38,2.16,1.53-1.64,1.1-3.95-.46-5.43,1.29l-4.27-.73H275.71a3.12,3.12,0,0,1,3-2.22c9.6-.19,19-2.2,28.43-3.56s19.17-1.7,27.48-7.36c1.24-.85,2.82-2,4.39-.29Z" transform="translate(184 99)" style="fill:#b66c40"/><path d="M366.18,532.82h24.68c-2.1,1.78-3.64,1.2-5,1.21-13.93.09-27.86.09-41.79.11-.91,0-1.82-.06-2.72,0-3.33.18-4.64,1.39-4.42,4.06.26,3.18,2.74,2.14,4.53,2.36,2.81.34,5.78-.59,8.44,1-3.62.12-7.24.18-10.85.37-1.77.1-3.46-.1-4-1.94s-.92-3.76.64-5.1a29.64,29.64,0,0,0,3.52-4,.7.7,0,0,1,1.19,0c-.49,2.29,1,2.17,2.52,2.16Q354.54,532.88,366.18,532.82Z" transform="translate(184 99)" style="fill:#5d5653"/><path d="M397.44,492.23a84.43,84.43,0,0,1-18.22,1.53c-3.24-.1-6.48,0-9.72-.06-.72,0-1.46-.21-1.56-1.12A1.51,1.51,0,0,1,369.1,491a6,6,0,0,1,2.1-.38q12.15-.09,24.31-.09C396.18,490.53,397,490.57,397.44,492.23Z" transform="translate(184 99)" style="fill:#cfcdcd"/><path d="M411.1,540.48c-1.86-2.14-4.56-.18-6.72-1.43,0-.81-.06-1.68,0-2.54a2.16,2.16,0,0,1,2-2.14,2,2,0,0,1,2.21,1.89c.14,1-.37,2.27,1.4,2.22a2,2,0,0,0,2.16-2.45c-.2-1.77-.07-3.25,1.87-3.94C415.93,538.36,415.91,538.4,411.1,540.48Z" transform="translate(184 99)" style="fill:#4f4a47"/><path d="M372,540.78H357.44c1.57-1.65,2.95-1.12,4.18-1.13,8-.1,16-.18,23.94-.13,1.92,0,4-.54,5.73,1Z" transform="translate(184 99)" style="fill:#654f4c"/><path d="M340.8,530.83l-1.61,0L350,509C350.25,513.66,346.36,522.52,340.8,530.83Z" transform="translate(184 99)" style="fill:#928e8d"/><path d="M360.45,493.61c.27-2.14.91-4,3.44-4.33,1.5,1.57,2.15,3.37.45,5.06C362.94,495.74,361.49,495.24,360.45,493.61Z" transform="translate(184 99)" style="fill:#6adb2c"/><path d="M297.76,458.76c2.38-1.74,5-.66,7.64-.86-.56,1.31-1.66.76-2.37,1.15Z" transform="translate(184 99)" style="fill:#b66c40"/><path d="M407.93,514.23c1.36.84,1,2.2,1,3.45l-.2.17c-1.42-.68-.89-2.13-1.28-3.23A.51.51,0,0,0,407.93,514.23Z" transform="translate(184 99)" style="fill:#807b7a"/><path d="M409,517.68c1.5.64.87,2.13,1.29,3.2a.65.65,0,0,0-.46.42c-1.26-.88-1-2.2-1-3.45Z" transform="translate(184 99)" style="fill:#807a78"/><path d="M343.37,260.88a19.27,19.27,0,0,0,3-1.23c2.16-1.34,3.68-.85,5.75.67,5.95,4.38,16.71.77,18-6.34,1.21-6.88,4.78-10.16,11.36-10.85A5.17,5.17,0,0,0,382,243c6.07-1.47,6.07-1.47,6.42,4.77.58,10.29,7.81,17.09,19.36,18.15,1.8.17,3.61.09,5.42.12-12.22,12.43-26.32,19.53-44.24,15.23-8.19-2-14.64-6.94-20.14-13.07C346.79,266,344.4,263.89,343.37,260.88Z" transform="translate(184 99)" style="fill:#d48763"/><path d="M398,419.92l-1.16.08c.16-1.89-1.65-2.74-2.88-3.86-4.31-3.92-7.12-8.61-9.85-13.38-1.15-2-.76-4.14-1.38-6.4-3.22,5.22-4.53,11.12-9.73,15.16a5.54,5.54,0,0,1,.57-1.5c5.91-8.06,7.34-16.87,7.44-26.26.08-7.72.68-15.48,1-23.22.92-1.82.33-3.74.49-5.62.1-1.09.27-2.19,1.86-2.18s1.85,1.12,1.8,2.21c-.06,1.53.36,3.1-.43,4.59-.09,12.52-.28,25-.24,37.57,0,8.37,5.17,14.5,12.49,19.55Z" transform="translate(184 99)" style="fill:#7b5c97"/><path d="M386.12,358.72c-.49-1.94.37-4.13-1.09-6.38-2.3,2.29-.14,5.51-2.17,7.41a162.55,162.55,0,0,1,2.64-37.24c1.78.22,1.52,1.13,1.52,1.72q.06,15.19,0,30.38C387,356,387.24,357.53,386.12,358.72Z" transform="translate(184 99)" style="fill:#7b5c97"/></svg>